<svg height="512" viewBox="0 0 60 60" width="512" xmlns="http://www.w3.org/2000/svg">
    <g id="Page-1" fill="none" fill-rule="evenodd">
        <g id="028---Search-Analytics" fill="rgb(0,0,0)" fill-rule="nonzero" transform="translate(0 -1)">
            <path id="Shape" d="m57 55h-50.382l8.546-17.091c1.2800564.2796828 2.6154111-.095101 3.563-1l6.48 4.881c-.131763.3900491-.2016097.7983318-.207 1.21-.0094833 1.9417118 1.376895 3.6097871 3.2875896 3.955592 1.9106945.3458049 3.7937708-.7305519 4.4654347-2.5524196.6716639-1.8218678-.0621053-3.8629711-1.7400243-4.8401724l.64-6.581c.117 0 .23.018.347.018 3.2082579.0027964 6.3423925-.964529 8.991-2.775l8.893 8.893c.7543177.7669879 1.8621316 1.0703343 2.9019642.7946284 1.0398327-.2757059 1.8518202-1.088077 2.1270349-2.1280398s-.0286549-2.1476332-.7959991-2.9015886l-8.892-8.892c1.4991121-2.1928228 2.4249639-4.7262807 2.693-7.369l3.327-.291c.6745728 1.8926798 2.6510305 2.9887421 4.6137477 2.5585951s3.2996089-2.2523595 3.1207756-4.253685-1.8176214-3.557639-3.825508-3.632983c-2.0078865-.0753441-3.7587003 1.3537777-4.0870153 3.3360729l-3.087.27c-.2009067-8.47788867-6.9846079-15.32484998-15.4602666-15.60443843s-15.6958459 6.10542345-16.4550319 14.55164133c-.759186 8.4462179 5.2066377 16.0164508 13.5962985 17.2527971l-.6 6.2c-.02 0-.038-.006-.058-.006-1.0147922.0020139-1.9904084.3919741-2.727 1.09l-6.48-4.881c.1309493-.3908494.1997858-.799819.204-1.212.0111801-1.849086-1.2465255-3.4648278-3.0418166-3.907743-1.7952911-.4429151-3.6601759.4024542-4.5103064 2.0445633-.8501305 1.642109-.463897 3.652897.934123 4.8631797l-7.382 14.764v-47.764c0-1.65685425-1.34314575-3-3-3s-3 1.34314575-3 3v52c.00330612 2.7600532 2.23994685 4.9966939 5 5h52c1.6568542 0 3-1.3431458 3-3s-1.3431458-3-3-3zm-2-40c1.1045695 0 2 .8954305 2 2s-.8954305 2-2 2-2-.8954305-2-2 .8954305-2 2-2zm-2.293 21.3c.1899184.1833574.2971827.4360134.2971827.7s-.1072643.5166426-.2971827.7c-.3896849.3857397-1.0173151.3857397-1.407 0l-8.725-8.725c.4967335-.4397333.9662667-.9092665 1.406-1.406zm-34.707-19.3c0-7.7319865 6.2680135-14 14-14s14 6.2680135 14 14-6.2680135 14-14 14c-7.7285595-.0082673-13.9917327-6.2714405-14-14zm11 24c1.1045695 0 2 .8954305 2 2s-.8954305 2-2 2-2-.8954305-2-2 .8954305-2 2-2zm-13-9c1.1045695 0 2 .8954305 2 2s-.8954305 2-2 2-2-.8954305-2-2 .8954305-2 2-2zm41 27h-52c-1.65685425 0-3-1.3431458-3-3v-52c0-.55228475.44771525-1 1-1s1 .44771525 1 1v52c0 .5522847.44771525 1 1 1h52c.5522847 0 1 .4477153 1 1s-.4477153 1-1 1z"/><path id="Shape" d="m44 17c0-6.627417-5.372583-12-12-12s-12 5.372583-12 12 5.372583 12 12 12c6.624447-.0071648 11.9928352-5.375553 12-12zm-12 4c-1.1045695 0-2-.8954305-2-2s.8954305-2 2-2 2 .8954305 2 2-.8954305 2-2 2zm.229 5.988.393-4.051c1.6926634-.2676575 3.0253702-1.5862765 3.311-3.276l5.826-.505c-.9986345 4.4909535-4.9306609 7.7223942-9.53 7.832zm-10.229-9.988c0-5.5228475 4.4771525-10 10-10s10 4.4771525 10 10c0 .044-.006.086-.007.129l-6.238.541c-.6146415-1.7508003-2.3551108-2.8468036-4.1996126-2.6445678-1.8445017.2022357-3.3061399 1.649326-3.5268155 3.4917125-.2206756 1.8423866.8578634 3.5937318 2.6024281 4.2258553l-.4 4.091c-4.7591156-.8590668-8.223359-4.997977-8.231-9.834z"/>
        </g>
    </g>
</svg>