<svg version="1.1" viewBox="0.0 0.0 187.09186351706037 100.0" fill="none" stroke="none" stroke-linecap="square" stroke-miterlimit="10" xmlns:xlink="http://www.w3.org/1999/xlink" xmlns="http://www.w3.org/2000/svg"><clipPath id="p.0"><path d="m0 0l187.09186 0l0 100.0l-187.09186 0l0 -100.0z" clip-rule="nonzero"/></clipPath><g clip-path="url(#p.0)"><path fill="#000000" fill-opacity="0.0" d="m0 0l187.09186 0l0 100.0l-187.09186 0z" fill-rule="evenodd"/><path fill="#000000" fill-opacity="0.0" d="m0 27.52756l187.37007 0l0 44.944885l-187.37007 0z" fill-rule="evenodd"/><path fill="#344358" d="m13.921875 41.52568q0.34375 0.609375 0.78125 1.515625q0.4375 0.90625 0.90625 1.96875q0.484375 1.046875 0.9375 2.15625q0.46875 1.09375 0.890625 2.0625q0.40625 -0.96875 0.875 -2.0625q0.46875 -1.109375 0.9375 -2.15625q0.484375 -1.0625 0.921875 -1.96875q0.4375 -0.90625 0.765625 -1.515625l2.65625 0q0.1875 1.28125 0.34375 2.875q0.15625 1.59375 0.265625 3.328125q0.125 1.71875 0.234375 3.453125q0.109375 1.734375 0.171875 3.265625l-2.828125 0q-0.0625 -1.890625 -0.15625 -4.109375q-0.09375 -2.21875 -0.28125 -4.46875q-0.328125 0.78125 -0.75 1.734375q-0.40625 0.953125 -0.8125 1.90625q-0.390625 0.9375 -0.765625 1.8125q-0.375 0.875 -0.625 1.484375l-2.046875 0q-0.25 -0.609375 -0.625 -1.484375q-0.375 -0.875 -0.78125 -1.8125q-0.390625 -0.953125 -0.8125 -1.90625q-0.40625 -0.953125 -0.734375 -1.734375q-0.1875 2.25 -0.28125 4.46875q-0.09375 2.21875 -0.15625 4.109375l-2.828125 0q0.0625 -1.53125 0.171875 -3.265625q0.109375 -1.734375 0.21875 -3.453125q0.125 -1.734375 0.28125 -3.328125q0.15625 -1.59375 0.34375 -2.875l2.78125 0zm21.93779 10.421875l0 2.5l-8.625 0l0 -12.921875l2.90625 0l0 10.421875l5.71875 0zm3.942627 -3.96875q0 0.953125 0.234375 1.71875q0.234375 0.75 0.671875 1.3125q0.4375 0.546875 1.0625 0.84375q0.640625 0.296875 1.46875 0.296875q0.796875 0 1.4375 -0.296875q0.640625 -0.296875 1.078125 -0.84375q0.4375 -0.5625 0.671875 -1.3125q0.234375 -0.765625 0.234375 -1.71875q0 -0.953125 -0.234375 -1.71875q-0.234375 -0.78125 -0.671875 -1.328125q-0.4375 -0.5625 -1.078125 -0.859375q-0.640625 -0.296875 -1.4375 -0.296875q-0.828125 0 -1.46875 0.3125q-0.625 0.296875 -1.0625 0.859375q-0.4375 0.546875 -0.671875 1.328125q-0.234375 0.765625 -0.234375 1.703125zm9.875 0q0 1.65625 -0.5 2.921875q-0.5 1.25 -1.359375 2.109375q-0.859375 0.84375 -2.046875 1.28125q-1.171875 0.421875 -2.53125 0.421875q-1.328125 0 -2.515625 -0.421875q-1.171875 -0.4375 -2.046875 -1.28125q-0.875 -0.859375 -1.375 -2.109375q-0.5 -1.265625 -0.5 -2.921875q0 -1.671875 0.515625 -2.921875q0.53125 -1.265625 1.40625 -2.125q0.890625 -0.859375 2.046875 -1.28125q1.171875 -0.4375 2.46875 -0.4375q1.3125 0 2.484375 0.4375q1.1875 0.421875 2.0625 1.28125q0.875 0.859375 1.375 2.125q0.515625 1.25 0.515625 2.921875z" fill-rule="nonzero"/><path fill="#f39208" d="m56.55635 44.916306q-0.734375 0.953125 -1.5625 2.078125q-0.8125 1.109375 -1.375 2.28125l2.9375 0l0 -4.359375zm2.71875 -3.390625l0 7.75l1.390625 0l0 2.28125l-1.390625 0l0 2.890625l-2.71875 0l0 -2.890625l-5.578125 0l0 -2.03125q0.40625 -0.828125 1.015625 -1.859375q0.625 -1.03125 1.375 -2.125q0.765625 -1.09375 1.59375 -2.140625q0.84375 -1.046875 1.6875 -1.875l2.625 0z" fill-rule="nonzero"/><path fill="#344358" d="m66.12186 41.52568q0.34375 0.609375 0.78125 1.515625q0.4375 0.90625 0.90625 1.96875q0.484375 1.046875 0.9375 2.15625q0.46875 1.09375 0.890625 2.0625q0.40625 -0.96875 0.875 -2.0625q0.46875 -1.109375 0.9375 -2.15625q0.484375 -1.0625 0.921875 -1.96875q0.4375 -0.90625 0.765625 -1.515625l2.65625 0q0.1875 1.28125 0.34375 2.875q0.15625 1.59375 0.265625 3.328125q0.125 1.71875 0.234375 3.453125q0.109375 1.734375 0.171875 3.265625l-2.828125 0q-0.0625 -1.890625 -0.15625 -4.109375q-0.09375 -2.21875 -0.28125 -4.46875q-0.328125 0.78125 -0.75 1.734375q-0.40625 0.953125 -0.8125 1.90625q-0.390625 0.9375 -0.765625 1.8125q-0.375 0.875 -0.625 1.484375l-2.046875 0q-0.25 -0.609375 -0.625 -1.484375q-0.375 -0.875 -0.78125 -1.8125q-0.390625 -0.953125 -0.8125 -1.90625q-0.40625 -0.953125 -0.734375 -1.734375q-0.1875 2.25 -0.28125 4.46875q-0.09375 2.21875 -0.15625 4.109375l-2.828125 0q0.0625 -1.53125 0.171875 -3.265625q0.109375 -1.734375 0.21875 -3.453125q0.125 -1.734375 0.28125 -3.328125q0.15625 -1.59375 0.34375 -2.875l2.78125 0zm21.96904 12.921875q-0.21875 -0.671875 -0.46875 -1.375q-0.25 -0.71875 -0.484375 -1.421875l-5.046875 0q-0.234375 0.703125 -0.484375 1.421875q-0.25 0.703125 -0.46875 1.375l-3.015625 0q0.734375 -2.09375 1.375 -3.859375q0.65625 -1.78125 1.28125 -3.34375q0.625 -1.5625 1.234375 -2.96875q0.609375 -1.40625 1.25 -2.75l2.78125 0q0.640625 1.34375 1.25 2.75q0.625 1.40625 1.25 2.96875q0.625 1.5625 1.265625 3.34375q0.65625 1.765625 1.390625 3.859375l-3.109375 0zm-3.5 -10.0q-0.09375 0.28125 -0.28125 0.765625q-0.1875 0.484375 -0.4375 1.125q-0.234375 0.625 -0.53125 1.390625q-0.28125 0.765625 -0.578125 1.609375l3.671875 0q-0.296875 -0.84375 -0.578125 -1.609375q-0.265625 -0.765625 -0.53125 -1.390625q-0.25 -0.640625 -0.4375 -1.125q-0.1875 -0.484375 -0.296875 -0.765625zm12.076157 -3.078125q2.90625 0 4.453125 1.046875q1.546875 1.03125 1.546875 3.203125q0 1.359375 -0.625 2.21875q-0.625 0.84375 -1.796875 1.328125q0.390625 0.484375 0.8125 1.109375q0.4375 0.625 0.859375 1.3125q0.421875 0.671875 0.8125 1.421875q0.390625 0.734375 0.734375 1.4375l-3.265625 0q-0.359375 -0.640625 -0.734375 -1.28125q-0.359375 -0.65625 -0.75 -1.265625q-0.375 -0.625 -0.75 -1.171875q-0.359375 -0.546875 -0.734375 -1.0l-1.4375 0l0 4.71875l-2.90625 0l0 -12.75q0.9375 -0.171875 1.953125 -0.25q1.03125 -0.078125 1.828125 -0.078125zm0.171875 2.484375q-0.328125 0 -0.578125 0.015625q-0.25 0.015625 -0.46875 0.03125l0 3.515625l0.8125 0q1.640625 0 2.34375 -0.40625q0.71875 -0.421875 0.71875 -1.40625q0 -0.953125 -0.71875 -1.34375q-0.71875 -0.40625 -2.109375 -0.40625zm16.1156 10.59375q-0.390625 -0.640625 -0.921875 -1.375q-0.53125 -0.734375 -1.15625 -1.46875q-0.625 -0.734375 -1.296875 -1.40625q-0.671875 -0.6875 -1.34375 -1.21875l0 5.46875l-2.90625 0l0 -12.921875l2.90625 0l0 4.875q1.140625 -1.1875 2.28125 -2.484375q1.140625 -1.296875 2.140625 -2.390625l3.453125 0q-1.328125 1.5625 -2.671875 3.015625q-1.328125 1.453125 -2.796875 2.921875q1.546875 1.296875 2.984375 3.078125q1.453125 1.765625 2.78125 3.90625l-3.453125 0zm5.1358795 0l0 -12.921875l8.71875 0l0 2.4375l-5.8125 0l0 2.53125l5.171875 0l0 2.390625l-5.171875 0l0 3.125l6.25 0l0 2.4375l-9.15625 0zm20.88382 -12.921875l0 2.46875l-3.890625 0l0 10.453125l-2.921875 0l0 -10.453125l-3.890625 0l0 -2.46875l10.703125 0zm1.8768158 0l2.90625 0l0 12.921875l-2.90625 0l0 -12.921875zm14.5672455 12.921875q-1.25 -2.21875 -2.71875 -4.375q-1.453125 -2.171875 -3.09375 -4.09375l0 8.46875l-2.859375 0l0 -12.921875l2.359375 0q0.625 0.609375 1.359375 1.515625q0.75 0.890625 1.515625 1.90625q0.78125 1.015625 1.546875 2.109375q0.765625 1.078125 1.4375 2.09375l0 -7.625l2.890625 0l0 12.921875l-2.4375 0zm11.729126 -10.6875q-2.03125 0 -2.9375 1.125q-0.90625 1.125 -0.90625 3.09375q0 0.953125 0.21875 1.734375q0.234375 0.765625 0.671875 1.328125q0.453125 0.546875 1.125 0.859375q0.671875 0.3125 1.5625 0.3125q0.484375 0 0.828125 -0.015625q0.359375 -0.03125 0.609375 -0.078125l0 -4.5l2.921875 0l0 6.40625q-0.53125 0.203125 -1.6875 0.4375q-1.15625 0.234375 -2.859375 0.234375q-1.453125 0 -2.640625 -0.453125q-1.171875 -0.453125 -2.015625 -1.3125q-0.84375 -0.859375 -1.296875 -2.109375q-0.453125 -1.25 -0.453125 -2.84375q0 -1.625 0.5 -2.875q0.5 -1.25 1.375 -2.109375q0.875 -0.875 2.0625 -1.328125q1.1875 -0.453125 2.53125 -0.453125q0.921875 0 1.65625 0.125q0.734375 0.125 1.265625 0.28125q0.53125 0.15625 0.875 0.328125q0.34375 0.171875 0.5 0.265625l-0.84375 2.328125q-0.59375 -0.3125 -1.375 -0.546875q-0.765625 -0.234375 -1.6875 -0.234375z" fill-rule="nonzero"/><path fill="#f39208" d="m176.47849 52.978806q0 0.828125 -0.53125 1.28125q-0.53125 0.4375 -1.203125 0.4375q-0.671875 0 -1.203125 -0.4375q-0.53125 -0.453125 -0.53125 -1.28125q0 -0.84375 0.53125 -1.28125q0.53125 -0.4375 1.203125 -0.4375q0.671875 0 1.203125 0.4375q0.53125 0.4375 0.53125 1.28125z" fill-rule="nonzero"/></g></svg>