<?xml version="1.0" encoding="iso-8859-1"?>
<!-- Generator: Adobe Illustrator 19.0.0, SVG Export Plug-In . SVG Version: 6.00 Build 0)  -->
<svg version="1.1" id="Capa_1" xmlns="http://www.w3.org/2000/svg" xmlns:xlink="http://www.w3.org/1999/xlink" x="0px" y="0px"
	 viewBox="-100 -100 712 712" style="enable-background:new 0 0 512 512;" xml:space="preserve">
<style type="text/css">
	.st0{fill:#F39200;}
</style>
<g>
	<g>
		<path class="st0" d="M353.91,354.435c-1.706-3.784-6.154-5.469-9.939-3.766c-3.784,1.704-5.47,6.154-3.767,9.938
			c5.628,12.496,8.482,25.841,8.482,39.665c0,53.318-43.378,96.696-96.696,96.696s-96.696-43.378-96.696-96.696
			s43.378-96.696,96.696-96.696c25.08,0,48.855,9.56,66.942,26.919c2.994,2.874,7.751,2.777,10.625-0.218
			c2.874-2.995,2.777-7.752-0.218-10.625c-20.9-20.059-48.371-31.105-77.349-31.105c-61.606,0-111.726,50.12-111.726,111.726
			S190.385,512,251.99,512s111.726-50.12,111.726-111.726C363.716,384.308,360.417,368.885,353.91,354.435z"/>
	</g>
</g>
<g>
	<g>
		<path class="st0" d="M285.459,383.74c4.151,0,7.515-3.365,7.515-7.515v-8.016c0-17.404-14.16-31.564-31.564-31.564h-0.501v-16.534
			c0-4.15-3.364-7.515-7.515-7.515c-4.15,0-7.515,3.365-7.515,7.515v16.708c-17.974,1.768-32.065,16.966-32.065,35.398
			c0,19.615,15.957,35.572,35.572,35.572h8.016c11.327,0,20.542,9.215,20.542,20.542s-9.215,20.542-20.542,20.542h-12.024
			c-9.116,0-16.533-7.417-16.533-16.533c0-4.15-3.365-7.515-7.515-7.515s-7.515,3.365-7.515,7.515
			c0,17.404,14.16,31.564,31.564,31.564h0.501v16.533c0,4.15,3.365,7.515,7.515,7.515c4.151,0,7.515-3.365,7.515-7.515v-16.708
			c17.974-1.768,32.065-16.966,32.065-35.398c0-19.615-15.957-35.572-35.572-35.572h-8.016c-11.327,0-20.542-9.215-20.542-20.542
			s9.215-20.542,20.542-20.542h12.024c9.116,0,16.533,7.417,16.533,16.533v8.016C277.944,380.376,281.308,383.74,285.459,383.74z"/>
	</g>
</g>
<g>
	<g>
		<path class="st0" d="M351,131.992L286.274,19.801C279.121,7.402,266.305,0,251.99,0c-14.314,0-27.131,7.402-34.283,19.801l-64.726,112.191
			c-7.148,12.392-7.145,27.186,0.01,39.575c7.155,12.389,19.967,19.784,34.274,19.784h129.451c14.306,0,27.118-7.396,34.273-19.784
			C358.146,159.178,358.149,144.384,351,131.992z M337.975,164.05c-4.439,7.684-12.385,12.272-21.259,12.272H187.265
			c-8.873,0-16.821-4.587-21.259-12.272c-4.438-7.685-4.44-16.86-0.006-24.547l64.726-112.191
			c4.437-7.691,12.386-12.282,21.264-12.282c8.878,0,16.828,4.591,21.265,12.282l64.726,112.191
			C342.415,147.189,342.413,156.365,337.975,164.05z"/>
	</g>
</g>
<g>
	<g>
		<path class="st0" d="M251.99,48.061c-4.15,0-7.515,3.365-7.515,7.515v64.13c0,4.15,3.365,7.515,7.515,7.515c4.151,0,7.515-3.365,7.515-7.515
			v-64.13C259.505,51.426,256.142,48.061,251.99,48.061z"/>
	</g>
</g>
<g>
	<g>
		<path class="st0" d="M251.99,136.24c-4.15,0-7.515,3.365-7.515,7.515v8.016c0,4.15,3.365,7.515,7.515,7.515c4.151,0,7.515-3.365,7.515-7.515
			v-8.016C259.505,139.604,256.142,136.24,251.99,136.24z"/>
	</g>
</g>
<g>
	<g>
		<path class="st0" d="M459.81,366.974c-0.683-4.093-4.546-6.857-8.65-6.177l-32.361,5.394c21.678-32.714,33.096-70.65,33.096-110.208
			c0-53.266-20.707-103.379-58.306-141.107c-2.932-2.941-7.689-2.949-10.627-0.019c-2.941,2.93-2.948,7.689-0.019,10.628
			c34.771,34.893,53.922,81.237,53.922,130.498c0,35.305-9.833,69.211-28.534,98.724l-4.635-27.813
			c-0.683-4.093-4.544-6.859-8.649-6.177c-4.093,0.682-6.86,4.554-6.178,8.648l8.016,48.097c0.613,3.675,3.797,6.281,7.405,6.281
			c0.41,0,0.826-0.034,1.245-0.103l48.097-8.016C457.726,374.94,460.492,371.068,459.81,366.974z"/>
	</g>
</g>
<g>
	<g>
		<path class="st0" d="M139.188,174.757l-8.017-56.113c-0.587-4.108-4.397-6.964-8.502-6.377l-56.114,8.016
			c-4.109,0.587-6.964,4.394-6.377,8.502c0.587,4.108,4.397,6.962,8.502,6.377l34.785-4.969
			C70.259,166.969,52.087,214.1,52.087,263.998c0,42.168,12.974,82.493,37.521,116.615c2.579,3.586,7.86,4.147,11.143,1.185
			c2.805-2.531,3.264-6.899,1.059-9.963c-22.695-31.549-34.692-68.839-34.692-107.838c0-48.038,18.218-93.299,51.369-127.874
			l5.823,40.758c0.587,4.106,4.546,7.021,8.641,6.355C136.938,182.587,139.76,178.762,139.188,174.757z"/>
	</g>
</g>
<g>
</g>
<g>
</g>
<g>
</g>
<g>
</g>
<g>
</g>
<g>
</g>
<g>
</g>
<g>
</g>
<g>
</g>
<g>
</g>
<g>
</g>
<g>
</g>
<g>
</g>
<g>
</g>
<g>
</g>
</svg>
